# xmcd
#
# Track frame offsets: 
#        183
#        7478
#        23460
#        40215
#        55113
#        80433
#        97483
#        123430
#        140858
#        162033
#        179913
#        201770
#
# Disc length: 2739 seconds
#
# Revision: 1
# Processed by: cddbd v1.5.2PL0 Copyright (c) Steve Scherf et al.
# Submitted via: ExactAudioCopyFreeDBPlugin 1.0
#
DISCID=ad0ab10c
DTITLE=The Blues Brothers - Illinois BDR 529
DYEAR=1979
DGENRE=Blues
TTITLE0=Intro
TTITLE1=Hey Bartender
TTITLE2=Almost
TTITLE3=Rubber Biscuit
TTITLE4=Shot Gun Blues
TTITLE5=Groove Me
TTITLE6=I Don't Know
TTITLE7=Soul Man
TTITLE8=B" Movie Box Car Blues
TTITLE9=Flip Flop Fly
TTITLE10=Jailhouse Rock
TTITLE11=Final
EXTD=YEAR: 1979 ID3G: 0\nLive at Wintherland Ballroom, San Francisco, 
EXTD=31-12-1979
EXTT0=
EXTT1=
EXTT2=
EXTT3=
EXTT4=
EXTT5=
EXTT6=
EXTT7=
EXTT8=
EXTT9=
EXTT10=
EXTT11=
PLAYORDER=
